<svg id="Capa_1" enable-background="new 0 0 511.997 511.997" height="512" viewBox="0 0 511.997 511.997" width="512" xmlns="http://www.w3.org/2000/svg"><g><path d="m51.128 232.755c-.327 44.423 35.5 80.543 79.936 80.543 28.609 0 55.216-15.449 69.437-40.317 13.796-24.122 48.606-24.071 62.472.097 13.903 24.235 39.857 39.641 67.728 40.203 43.955.911 80.966-34.446 81.582-78.776.624-44.629-35.267-81.081-79.928-81.081h-200.192c-44.358.001-80.71 35.588-81.035 79.331zm346.156 1.542c-.502 35.971-30.649 64.771-66.275 63.988-22.643-.457-43.727-12.975-55.025-32.67-19.609-34.179-68.922-34.318-88.504-.08-11.557 20.209-33.174 32.764-56.415 32.764-36.087 0-65.202-29.333-64.936-65.433.264-35.533 29.886-64.441 66.034-64.441h200.191c36.182 0 65.438 29.514 64.93 65.872z"/><path d="m342.853 250.658c2.93 2.929 7.678 2.929 10.607 0s2.929-7.678 0-10.606l-44.106-44.106c-2.93-2.929-7.678-2.929-10.607 0s-2.929 7.678 0 10.606z"/><path d="m349.635 219.743c2.93 2.929 7.678 2.929 10.607 0s2.929-7.678 0-10.606l-20.493-20.493c-2.93-2.929-7.678-2.929-10.607 0s-2.929 7.678 0 10.606z"/><path d="m214.209 123.243h-82.046c-60.877 0-110.769 49.026-111.216 109.288-.453 61.193 48.909 110.95 110.117 110.95 39.409 0 76.055-21.272 95.638-55.517 2.23-3.9 7.827-3.81 10.091.134 19.146 33.372 54.897 54.584 93.299 55.359 32.497.67 63.335-12.95 85.095-37.716v112.573c0 18.422-14.987 33.409-33.41 33.409h-86.521c-18.422 0-33.409-14.987-33.409-33.409v-9.566c6.051-2.537 10.312-8.52 10.312-15.481v-25.371c0-9.253-7.527-16.781-16.78-16.781h-47.337c-9.253 0-16.78 7.528-16.78 16.781v25.371c0 6.961 4.262 12.943 10.312 15.481v9.566c0 51.656 42.025 93.682 93.682 93.682h86.521c51.657 0 93.683-42.026 93.683-93.682v-53.984c0-4.142-3.357-7.5-7.5-7.5s-7.5 3.358-7.5 7.5v53.984c0 43.385-35.297 78.682-78.683 78.682h-86.521c-43.385 0-78.682-35.297-78.682-78.682v-8.266h30.272v8.266c0 26.693 21.716 48.409 48.409 48.409h86.521c26.693 0 48.41-21.716 48.41-48.409v-134.447c1.158-2.226 2.241-4.489 3.241-6.786h27.031v52.25c0 4.142 3.357 7.5 7.5 7.5s7.5-3.358 7.5-7.5v-52.25h1.26c7.904 0 14.335-6.431 14.335-14.335v-54.663c0-7.904-6.431-14.334-14.335-14.334h-1.26v-102.121h2.812c4.143 0 7.5-3.358 7.5-7.5s-3.357-7.5-7.5-7.5h-2.812v-18.996c6.051-2.538 10.312-8.52 10.312-15.481v-25.371c0-9.252-7.527-16.78-16.78-16.78h-47.337c-9.253 0-16.78 7.528-16.78 16.78v25.371c0 6.961 4.262 12.944 10.312 15.481v18.996h-2.812c-4.143 0-7.5 3.358-7.5 7.5s3.357 7.5 7.5 7.5h2.812v69.178c-20.775-23.646-50.305-37.563-82.832-37.563h-83.146c-4.143 0-7.5 3.358-7.5 7.5s3.357 7.5 7.5 7.5h83.146c52.568 0 95.855 42.768 95.11 96.474-.743 52.887-44.852 94.83-97.065 93.744-33.173-.669-64.055-18.995-80.596-47.827-8.003-13.95-28.135-14.084-36.123-.116-16.918 29.584-48.574 47.962-82.616 47.962-52.855 0-95.509-42.967-95.117-95.839.387-52.052 43.549-94.399 96.216-94.399h82.046c4.143 0 7.5-3.358 7.5-7.5s-3.357-7.499-7.499-7.499zm-7.949 244.655c0-.965.815-1.781 1.78-1.781h47.337c.965 0 1.78.815 1.78 1.781v25.371c0 .965-.815 1.78-1.78 1.78h-47.337c-.965 0-1.78-.815-1.78-1.78zm269.793-105.817c-11.8 0-20.918 0-37.371 0v-.001c2.609-9.66 3.78-19.904 3.78-27.154.122-8.831-.795-17.622-2.738-26.178h36.329zm-56.179-245.301c0-.965.815-1.78 1.78-1.78h47.337c.965 0 1.78.815 1.78 1.78v25.371c0 .965-.815 1.781-1.78 1.781-4.404 0-42.532 0-47.337 0-.965 0-1.78-.815-1.78-1.781zm10.312 42.152h30.272v17.697h-30.272zm0 32.696h30.272v102.12h-25.298c-1.452-3.771-3.109-7.461-4.975-11.053v-91.067z"/></g></svg>